Coordinates
version=1
nRows=7
nColumns=40
inDegrees=yes

Units are S.I. units (second, meters, Newtons, ...)
If the header above contains a line with 'inDegrees', this indicates whether rotational values are in degrees (yes) or radians (no).

endheader
time	pelvis_tilt	pelvis_list	pelvis_rotation	pelvis_tx	pelvis_ty	pelvis_tz	hip_flexion_r	hip_adduction_r	hip_rotation_r	knee_angle_r	knee_angle_r_beta	ankle_angle_r	subtalar_angle_r	mtp_angle_r	hip_flexion_l	hip_adduction_l	hip_rotation_l	knee_angle_l	knee_angle_l_beta	ankle_angle_l	subtalar_angle_l	mtp_angle_l	lumbar_extension	lumbar_bending	lumbar_rotation	arm_flex_r	arm_add_r	arm_rot_r	elbow_flex_r	pro_sup_r	wrist_flex_r	wrist_dev_r	arm_flex_l	arm_add_l	arm_rot_l	elbow_flex_l	pro_sup_l	wrist_flex_l	wrist_dev_l
      7.03500000	    -23.66316094	     -0.39124477	      5.51159343	     -0.47792871	      0.64024072	     -0.88567878	     86.39867411	    -21.94043415	     -4.42375849	    105.21493488	      1.83634704	     43.89083149	      0.00000000	      0.00000000	     90.51835736	    -23.20669246	     -7.14834228	    102.10648766	      1.78209440	     32.63832624	      0.00000000	      0.00000000	    -27.49451165	     -3.11543500	     -2.85399200	     32.20119595	    -53.04467257	     89.63041794	    104.54524191	     88.65654193	      0.00000000	      0.00000000	     28.86237809	    -59.25816351	     89.63423130	    113.40232447	     88.49788877	      0.00000000	      0.00000000
      7.04000000	    -23.37703514	     -0.46541401	      5.51551406	     -0.47754917	      0.64092408	     -0.88557990	     85.96417832	    -21.92772611	     -4.60268718	    105.16216154	      1.83542597	     43.99157292	      0.00000000	      0.00000000	     90.24562652	    -23.24142774	     -7.05175886	    102.09268338	      1.78185347	     32.79942216	      0.00000000	      0.00000000	    -27.86626286	     -3.01831588	     -2.81014483	     32.29345166	    -53.03909634	     89.63093704	    104.53610840	     88.62553209	      0.00000000	      0.00000000	     28.90837765	    -59.20135671	     89.63538546	    113.32217324	     88.50940255	      0.00000000	      0.00000000
      7.04500000	    -23.32467696	     -0.38076689	      5.57084628	     -0.47755343	      0.64099904	     -0.88568989	     85.95772833	    -21.99969012	     -4.49631813	    105.19335166	      1.83597034	     43.97531605	      0.00000000	      0.00000000	     90.11749974	    -23.14792075	     -7.12824983	    102.08697579	      1.78175385	     32.63748711	      0.00000000	      0.00000000	    -27.98402072	     -3.05897334	     -2.90018128	     32.30415419	    -53.01276580	     89.63050538	    104.52833011	     88.62707149	      0.00000000	      0.00000000	     28.92392582	    -59.20639519	     89.63535410	    113.31567305	     88.51845586	      0.00000000	      0.00000000
      7.05000000	    -23.16172409	     -0.33580692	      5.59925995	     -0.47736270	      0.64143828	     -0.88573540	     85.75851026	    -22.04915244	     -4.48492278	    105.18931236	      1.83589984	     43.93250085	      0.00000000	      0.00000000	     89.89289785	    -23.10344413	     -7.15748422	    102.07100603	      1.78147513	     32.61196467	      0.00000000	      0.00000000	    -28.23200863	     -3.07429437	     -2.94309518	     32.34981133	    -52.96299281	     89.63841582	    104.42127975	     88.54913949	      0.00000000	      0.00000000	     28.97792271	    -59.15338181	     89.64376785	    113.22327686	     88.43640214	      0.00000000	      0.00000000
      7.05500000	    -23.41316075	     -0.48177419	      5.53945594	     -0.47791950	      0.64054069	     -0.88541531	     86.06734592	    -21.86944438	     -4.55109389	    105.20437371	      1.83616271	     43.96735007	      0.00000000	      0.00000000	     90.35660524	    -23.15467194	     -6.93165406	    102.12679865	      1.78244889	     32.66945304	      0.00000000	      0.00000000	    -27.97939050	     -2.98821225	     -2.79984149	     32.30574355	    -53.06506587	     89.63326375	    104.65973938	     88.59323097	      0.00000000	      0.00000000	     28.95074970	    -59.20755473	     89.63938742	    113.38512450	     88.50974713	      0.00000000	      0.00000000
      7.06000000	    -23.45469737	     -0.47951639	      5.62357615	     -0.47811227	      0.64050037	     -0.88555749	     86.12598869	    -21.95131050	     -4.53468008	    105.20316849	      1.83614167	     43.92478582	      0.00000000	      0.00000000	     90.41144010	    -23.02361703	     -6.92557909	    102.09631657	      1.78191688	     32.59353648	      0.00000000	      0.00000000	    -27.99170940	     -2.95623617	     -2.88898570	     32.33964011	    -53.04580636	     89.63667810	    104.67140886	     88.60296536	      0.00000000	      0.00000000	     28.93658399	    -59.21181130	     89.63868282	    113.39801396	     88.50377730	      0.00000000	      0.00000000
      7.06500000	    -23.52247996	     -0.47151623	      5.59498291	     -0.47827016	      0.64045020	     -0.88548625	     86.21659875	    -21.88619901	     -4.50244281	    105.17162882	      1.83559120	     43.97182008	      0.00000000	      0.00000000	     90.49272981	    -23.02139640	     -6.91297948	    102.08579091	      1.78173317	     32.56917333	      0.00000000	      0.00000000	    -27.97306607	     -2.97838139	     -2.85683617	     32.31568525	    -53.04818875	     89.63276902	    104.62865914	     88.61261130	      0.00000000	      0.00000000	     28.92370438	    -59.20113869	     89.63716569	    113.38489844	     88.55613139	      0.00000000	      0.00000000
